<svg id="e7334088-53de-4589-99a2-090044ddfc90" xmlns="http://www.w3.org/2000/svg" viewBox="0 0 973.46 587.03"><defs><style>.cls-1{fill:#3f3d56;}.cls-2{fill:#e4e4e4;}.cls-3{fill:#cacaca;}.cls-4{fill:#ffb6b6;}.cls-5{fill:#2f2e41;}.cls-6{fill:#feb8b8;}.cls-20,.cls-7{fill:#2563eb;}.cls-8{fill:#fbbebe;}.cls-18,.cls-9{fill:#fff;}.cls-10{fill:#ccc;}.cls-11{fill:#e6e6e6;}.cls-12,.cls-21{fill:#414042;}.cls-13,.cls-25{fill:#727272;}.cls-14,.cls-22{fill:#3d61ab;}.cls-15,.cls-19{fill:#ede4e5;}.cls-16{fill:#e3e4e5;}.cls-17{opacity:0.9;}.cls-18,.cls-19,.cls-20,.cls-21,.cls-22,.cls-23,.cls-25{fill-rule:evenodd;}.cls-23{fill:#f2f2f2;}.cls-24{fill:#cdcebf;}</style></defs><title>coding_blue</title><path class="cls-1" d="M425.08,226.49a1,1,0,0,1-1,1l-49.36.31a5,5,0,0,1-5-5l-.3-48.67a1,1,0,0,1,1-1,1,1,0,0,1,1,1l.3,48.68a3,3,0,0,0,3,3l49.36-.31A1,1,0,0,1,425.08,226.49Z" transform="translate(0)"/><g id="f9b32178-6d95-472d-b482-6662972666de"><path id="f4b94a19-cbe0-459a-95a6-6ea3b3d72055" class="cls-2" d="M561.88,471.61a11.49,11.49,0,1,0,11.49,11.49h0A11.5,11.5,0,0,0,561.88,471.61Zm0,18.56A7.07,7.07,0,1,1,569,483.1h0A7.07,7.07,0,0,1,561.88,490.17Z" transform="translate(0)"/><path id="abc0e0b3-f22e-4bee-9929-c6879640924e" class="cls-2" d="M517.68,462.77h44.2v43.74a5.76,5.76,0,0,1-5.76,5.76H523.44a5.76,5.76,0,0,1-5.76-5.76h0V462.77Z" transform="translate(0)"/></g><path id="e24b6f19-a0a0-4e73-9cfc-bbb7635ad236" class="cls-3" d="M665.13,513.27H.9a1,1,0,0,1,0-2H665.13a1,1,0,0,1,0,2Z" transform="translate(0)"/><polygon class="cls-4" points="89.41 494.38 85.3 514.69 161.69 540.21 167.76 510.23 89.41 494.38"/><path class="cls-5" d="M97.09,490.54l-8.09,40h0a26,26,0,0,1-30.65,20.33l-.83-.17,13.25-65.49Z" transform="translate(0)"/><circle id="fd4e5ab9-ffc8-4bbb-9267-3af70c31dae1" class="cls-6" cx="175.98" cy="162.71" r="51.87"/><path id="a8c9bbe2-1461-49cf-8211-f8d251166dc5" class="cls-5" d="M224.43,118a60,60,0,0,0-34.08-26L184,96.56v-6a55.51,55.51,0,0,0-10.3-.6l-5.5,5V90.34a59.35,59.35,0,0,0-40.93,24.34c-11.93,17.2-13.94,41.13-2.21,58.47,3.22-9.9,7.13-19.19,10.36-29.09a29.09,29.09,0,0,0,7.63,0L147,135l1.09,8.75c12.15-1.06,30.17-3.38,41.68-5.51l-1.12-6.72,6.7,5.59c3.53-.82,5.63-1.55,5.45-2.12,8.57,13.81,19.05,22.63,27.62,36.44C231.62,151.92,235.36,135.73,224.43,118Z" transform="translate(0)"/><ellipse id="f6be96d1-713f-4c17-812c-ecd79c56fe95" class="cls-5" cx="192.86" cy="464.79" rx="133.56" ry="37.36"/><path class="cls-7" d="M287.54,296.1c-1.78-10.73-3.62-21.67-8.61-31.33-3.28-6.34-8.48-12.37-15.5-13.62a15.06,15.06,0,0,1-4-.94c-2.06-1-29.67-16.75-34.06-19.5-3.77-2.36-9.72-6.72-12.72-6.72s-14.59,2.63-59.76-.9a162.09,162.09,0,0,0-22,10.82c-.15-.1-46.89,25-48.64,24.93-3.33-.14-6.42,2-8.32,4.67s-2.8,6-3.74,9.21C80.36,295.46,89.7,318.22,99.91,341a5.85,5.85,0,0,1,.74,2.8,6.86,6.86,0,0,1-1.27,2.8c-5,8-4.85,18.16-4.3,27.61s1.22,19.43-3,27.91c-1.15,2.32-2.65,4.45-3.74,6.78-2.56,5.27-3.48,22.12-2,27.77L273.62,442C269.59,430.92,287.54,296.1,287.54,296.1Z" transform="translate(0)"/><path id="eb41f72e-aba6-4a16-bf55-c7027d2f1a4b" class="cls-8" d="M54,342a33.17,33.17,0,0,0-.11,8.15l2.69,38.55c.25,3.63.5,7.25.84,10.88.64,7,1.6,14,2.8,21A3.73,3.73,0,0,0,64,424.15c11.81,2.5,24,2.4,36.08,1.72,18.4-1,65.47-3,68.35-6.71s1.2-9.78-2.55-12.8S100,396,100,396c.61-4.81,2.44-9.34,4.18-13.91,3.12-8.1,6-16.47,6.09-25.14s-3.21-17.8-10.32-22.78c-5.85-4.08-13.38-4.83-20.5-4.67-5.19.15-14.14-1.09-18.88.94C56.84,332.07,54.66,338.29,54,342Z" transform="translate(0)"/><path id="a363f2f7-2464-40a1-ad01-344825aa0b75" class="cls-5" d="M287.87,429.09c3.11-1.18,6.54-.76,9.87-.31,10.74,1.47,21.63,3,31.57,7.26,4.67,2,9.12,4.67,12.28,8.6,2.8,3.54,4.43,7.87,6,12.14l3.59,9.83a47.41,47.41,0,0,1,3.13,11.51c1.12,11.76-6.92,22.85-17,29s-22,8.28-33.62,10.56-23.25,4.8-34.8,7.47a140.54,140.54,0,0,1-16.37,3.23c-12.37,1.4-25.3-.67-37.05,3.42-4.67,1.64-9.25,4.07-14.1,5.2a88.9,88.9,0,0,1-9.75,1.48L169.32,541a121.87,121.87,0,0,1-13.63,1c-9.71,0-19.27-2.3-28.7-4.6a7.29,7.29,0,0,1-2.8-1.13c-1.5-1.18-1.82-3.26-2-5.15q-1.43-12.52-2.5-25.08c-.22-2.71-.39-5.66,1.1-7.94,1.86-2.8,5.51-3.68,8.83-4.23a231.77,231.77,0,0,1,42.67-3c5.42-5.42,14.37-5.45,21.48-8.4a64.44,64.44,0,0,0,7.57-4.12,99,99,0,0,1,41.59-13.14,38.75,38.75,0,0,0,8.51-1.22c5.5-1.71,10.52-6.36,16.17-5.22.7-1.93,1.19-4.52,2.8-5.85.8-.68,1.79-1.13,2.53-1.86,1.56-1.58,1.7-4.07,1.47-6.27s-.76-4.46-.19-6.61a9.24,9.24,0,0,1,1-2.31C278,431.11,282.24,428.62,287.87,429.09Z" transform="translate(0)"/><path id="b53ad979-99f4-4c6e-a0f8-957060c42096" class="cls-7" d="M69.61,273.41a9.73,9.73,0,0,0-2.07,3.32,156.76,156.76,0,0,0-13.17,53.82,5.35,5.35,0,0,1-.61,2.6,11.37,11.37,0,0,1-1.37,1.49A5.14,5.14,0,0,0,53,341.9l.26.21c1.54-2.9,5.23-3.85,8.51-4.1,15.7-1.24,31,6.06,46.78,5.51-1.11-3.84-2.71-7.53-3.62-11.41-4-17.25,6-36-.14-52.65-1.22-3.33-3.27-6.6-6.49-8a17.07,17.07,0,0,0-4.15-1.1c-4-.72-11.9-3.8-15.75-2.56-1.42.46-2,1.79-3.16,2.6C73.46,271.49,71.09,271.91,69.61,273.41Z" transform="translate(0)"/><path id="a1197c30-bfd4-4098-bcf9-2468e7a33bf1" class="cls-8" d="M287.65,330.42c-4.73-2-13.69-.79-18.87-.94-7.13-.16-14.66.59-20.5,4.67-7.11,5-10.38,14.1-10.33,22.78s3,17,6.09,25.14c1.74,4.57,3.57,9.1,4.18,13.91,0,0-62.12,7.36-65.87,10.38s-5.43,9.07-2.55,12.8,92.61,7.49,104.43,5a3.74,3.74,0,0,0,3.83-3.63c1.19-7,2.15-13.95,2.8-21,.34-3.63.59-7.25.84-10.88l2.68-38.55a33.17,33.17,0,0,0-.11-8.15C293.57,338.29,291.4,332.07,287.65,330.42Z" transform="translate(0)"/><path id="ebe46053-6aac-4aa7-8615-21a6fa79538d" class="cls-7" d="M273,270.35c-1.18-.81-1.74-2.14-3.16-2.6-3.84-1.24-11.76,1.84-15.74,2.56a17.15,17.15,0,0,0-4.16,1.1c-3.22,1.45-5.27,4.72-6.49,8-6.13,16.61,3.87,35.4-.14,52.65-.91,3.88-2.5,7.57-3.61,11.41,15.74.55,31.08-6.75,46.78-5.51,3.28.25,7,1.2,8.51,4.1l.26-.21a5.15,5.15,0,0,0,.62-7.26,11.44,11.44,0,0,1-1.38-1.49,5.24,5.24,0,0,1-.6-2.6,156.76,156.76,0,0,0-13.17-53.82,9.75,9.75,0,0,0-2.08-3.32C277.14,271.91,274.77,271.49,273,270.35Z" transform="translate(0)"/><polygon class="cls-4" points="299.24 523.38 296.51 543.92 215.97 543.17 220 512.85 299.24 523.38"/><path class="cls-5" d="M319.85,520.78,311.05,587l-.84-.12a26,26,0,0,1-22.36-29.2h0l5.37-40.45Z" transform="translate(0)"/><path id="a0b0f7ea-4ed9-4447-aa64-e2335b2c3196" class="cls-5" d="M109.77,439.49c0,.93-1.47,0-1.6-1-1-7.56-7-13.79-14-16.82s-14.94-3.18-22.51-2.46c-11.44,1.08-24.28,5.46-28.47,16.16-1,2.5-10.26,24.76-9.36,29.76,2.44,13.36,11.58,24.78,22.64,32.69s24,12.64,36.9,16.9a640.1,640.1,0,0,0,104.61,25c5.75.87,11.56,1.67,17.07,3.52,4.93,1.65,9.55,4.13,14.37,6.07,11.21,4.5,23.26,6.11,35.21,7.69,2,.26,4.37.44,5.87-.94,1.95-1.8,1.3-4.94.75-7.53A40.54,40.54,0,0,1,276,519.79c2-3.36,4.6-6.8,4.23-10.7-.45-4.53-5-7.75-9.47-8.48s-9.08.35-13.6.94a7.37,7.37,0,0,1-4.63-.46,8.93,8.93,0,0,1-1.81-1.61,20.47,20.47,0,0,0-23.85-3.33c-1.68.93-4.2-1.15-5.94-1.93l-19.65-8.9c-22.56-10.2-45.24-20.46-69.11-26.92a14.44,14.44,0,0,1-5.32-2.22c-1.19-.93-2-2.2-3.13-3.24-2.39-2.25-5.7-3.15-8.56-4.74S109.12,442.69,109.77,439.49Z" transform="translate(0)"/><circle class="cls-8" cx="160.62" cy="411.99" r="14"/><circle class="cls-8" cx="191.62" cy="411.99" r="14"/><path class="cls-1" d="M278,443.54H85.7a8.48,8.48,0,0,1-8.47-8.47V318.38a8.48,8.48,0,0,1,8.47-8.47H278a8.49,8.49,0,0,1,8.47,8.47V435.07A8.49,8.49,0,0,1,278,443.54Z" transform="translate(0)"/><circle id="e793da3b-cee2-4a15-ae11-6dab45a6c728" class="cls-9" cx="181.4" cy="376.72" r="5.6"/><path class="cls-1" d="M868,210.45H618.14a5,5,0,0,1-5-5v-47.1h2v47.1a3,3,0,0,0,3,3H868a3,3,0,0,0,3-3V158h2v47.43A5,5,0,0,1,868,210.45Z" transform="translate(0)"/><rect class="cls-1" x="371.4" y="157.35" width="587.22" height="2"/><circle id="a67a4451-c7cc-402c-b29d-5a705f3c9418" class="cls-7" cx="371.44" cy="158.2" r="17.2"/><circle id="abdb3fbf-f68e-433e-a33f-153626b38c76" class="cls-7" cx="546.24" cy="158.2" r="17.2"/><circle id="ac293633-0933-4e21-a8aa-bc27ca4fbccc" class="cls-1" cx="664.88" cy="208.76" r="17.2"/><circle id="a0cd768d-b738-4d4b-9ab3-78ab535c7573" class="cls-10" cx="755.06" cy="208.76" r="17.2"/><circle id="b9eb3d2e-31e0-4fe2-be5c-79abb86bc227" class="cls-7" cx="711.36" cy="158.2" r="17.2"/><circle id="aa04baac-fce0-420a-b86a-4a97f3079928" class="cls-7" cx="956.26" cy="158.2" r="17.2"/><circle id="e92cf92c-058e-415c-ba96-766a57ee18d9" class="cls-7" cx="872.03" cy="158.2" r="17.2"/><rect id="ac5bf8cc-574d-4509-9338-881c836fd832" class="cls-1" x="648.54" width="31.91" height="21.99"/><rect id="ad5a043d-52f1-4931-b771-e4991ef7f7f7" class="cls-7" x="355.61" width="31.91" height="21.99"/><rect id="e5d95e83-bdd9-4322-95a9-5a9c4b449a8f" class="cls-10" x="463.68" width="31.91" height="21.99"/><path class="cls-1" d="M424.78,159.35a1,1,0,0,1-1-1V109a5,5,0,0,1,5-5h48.68a1,1,0,0,1,0,2H428.78a3,3,0,0,0-3,3v49.36A1,1,0,0,1,424.78,159.35Z" transform="translate(0)"/><circle id="b0a7c1c1-8f27-441f-a84a-e44462cc473e" class="cls-11" cx="479.74" cy="104.62" r="17.2"/><path class="cls-1" d="M809.78,158.35h-2V109a5,5,0,0,1,5-5h48.68v2H812.78a3,3,0,0,0-3,3Z" transform="translate(0)"/><circle id="b3140cf1-cdb8-48ff-81af-ce41ed4f5739" class="cls-11" cx="863.74" cy="104.62" r="17.2"/><path class="cls-1" d="M847.29,209.21a1,1,0,0,1,1,1l.67,49.35a5,5,0,0,1-4.93,5.07l-48.67.66a1,1,0,0,1-1-1,1,1,0,0,1,1-1l48.67-.66a3,3,0,0,0,3-3l-.67-49.36A1,1,0,0,1,847.29,209.21Z" transform="translate(0)"/><g id="Layer_2" data-name="Layer 2"><g id="flat"><polygon class="cls-7" points="513.11 284.08 513.18 307.41 393.85 307.8 393.54 212.07 512.87 211.68 512.89 216.64 521.01 224.78 521.25 275.82 513.11 284.08"/><ellipse class="cls-9" cx="513.12" cy="273.83" rx="4.07" ry="4.02" transform="translate(-0.88 1.66) rotate(-0.19)"/><ellipse class="cls-9" cx="512.97" cy="227.54" rx="4.07" ry="4.02" transform="translate(-0.73 1.66) rotate(-0.19)"/><ellipse class="cls-9" cx="420.95" cy="218.18" rx="4.07" ry="4.02" transform="translate(-0.7 1.37) rotate(-0.19)"/><ellipse class="cls-9" cx="417.14" cy="299.11" rx="4.07" ry="4.02" transform="translate(-0.97 1.35) rotate(-0.19)"/><rect class="cls-12" x="443.09" y="211.85" width="38.04" height="8.9" transform="translate(-0.7 1.5) rotate(-0.19)"/><rect class="cls-12" x="476.99" y="298.86" width="36.23" height="8.61" transform="translate(-0.98 1.61) rotate(-0.19)"/><rect class="cls-12" x="485.77" y="211.72" width="27.17" height="8.9" transform="translate(-0.7 1.62) rotate(-0.19)"/><rect class="cls-12" x="425.21" y="299.01" width="47.16" height="8.61" transform="translate(-0.98 1.46) rotate(-0.19)"/><rect class="cls-13" x="393.59" y="218.24" width="17.24" height="16.28" transform="translate(-0.73 1.3) rotate(-0.19)"/><rect class="cls-12" x="387.32" y="218.28" width="6.27" height="16.28" transform="translate(-0.73 1.27) rotate(-0.19)"/><rect class="cls-12" x="457.4" y="234.53" width="55.63" height="19.05" transform="translate(-0.79 1.57) rotate(-0.19)"/><rect class="cls-14" x="419.92" y="268.97" width="11.37" height="11.23" transform="translate(-0.89 1.38) rotate(-0.19)"/><rect class="cls-15" x="380.02" y="269.07" width="30.98" height="22.47" transform="translate(-0.91 1.28) rotate(-0.19)"/><rect class="cls-14" x="403.4" y="244.31" width="7.51" height="14.29" transform="translate(-0.81 1.32) rotate(-0.19)"/><path class="cls-16" d="M424.55,239.38h0a7.56,7.56,0,0,0,7.59-7.55h0a7.56,7.56,0,0,0-7.64-7.49h0a7.55,7.55,0,0,0-7.58,7.54h0A7.56,7.56,0,0,0,424.55,239.38Z" transform="translate(0)"/><path class="cls-16" d="M441.66,239.32h0a7.55,7.55,0,0,0,7.58-7.54h0a7.56,7.56,0,0,0-7.63-7.5h0a7.57,7.57,0,0,0-7.59,7.55h0A7.56,7.56,0,0,0,441.66,239.32Z" transform="translate(0)"/><g class="cls-17"><path class="cls-18" d="M440,278.93c0-14.43,20-19.87,30-5.21,10.22-15.27,29.52-8.94,29.56,5s-19.11,20.77-29.53,5.19c-9.77,15.46-30,9.42-30-5Zm5.27,0c0,10.41,14.93,13.65,21.81-.07C460,265.67,445.27,268.5,445.3,278.91Zm27.62-.09c6.28,13.95,21.56,10.05,21.49-.09S478.93,265.48,472.92,278.82Z" transform="translate(0)"/><rect class="cls-9" x="480.79" y="277.46" width="8.83" height="2.88" transform="translate(-0.9 1.57) rotate(-0.19)"/><polygon class="cls-18" points="453.31 277.37 450.4 277.38 450.41 280.44 453.32 280.43 453.33 283.31 456.43 283.3 456.42 280.42 459.34 280.41 459.33 277.35 456.41 277.36 456.4 274.48 453.31 274.49 453.31 277.37"/></g></g></g><g id="svgg"><path id="path0" class="cls-19" d="M640.26,245.55c0,.09.23.14.76.14h136.9c12.67,0,19.14-.05,19.14-.14s-156.68-.18-156.8,0m-1,.34a.16.16,0,0,0,.22.17c.33-.06.38-.37,0-.37-.16,0-.27.08-.27.2m158.22,0a.44.44,0,0,0,.36.22c.21,0,.28,0,.24-.13a.44.44,0,0,0-.36-.22c-.2,0-.28,0-.24.13m-158.75.24c0,.06-.18.23-.4.36s-.4.31-.4.4-.06.17-.13.17-.14.09-.14.2.06.2.14.2.13-.09.13-.2a.2.2,0,0,1,.2-.2c.11,0,.2-.06.2-.14a.75.75,0,0,1,.5-.52c.07,0,.17-.09.21-.2s0-.2-.12-.2-.19.06-.19.13m159.52.07c0,.11.06.2.13.2a2.38,2.38,0,0,1,.93.93.13.13,0,0,0,.13.13c.27,0,.12-.3-.43-.87s-.76-.71-.76-.39m-160.9,1.48c-.16.16-.09.44.11.44s.2-.11.2-.26-.14-.35-.31-.18m162.22.17c0,.16.09.27.21.27s.19-.09.17-.22c-.07-.33-.38-.38-.38,0m.34.57a3.37,3.37,0,0,0-.1.57l0,.39-14.55,0c-12,0-14.57.06-14.7.21s-.14,4.13-.11,14.77l0,14.58,14.67.07,14.66.06v7.3l-14.66.07-14.67.06v25.75l14.67.07,14.66.06,0,3.69,0,3.68H781.57c-10.06,0-18.36.05-18.45.11s-.16,3.57-.17,16.58c0,15.53,0,16.47-.23,16.54s-13.67.08-14.14,0l-.37-.07,0-3.48a35.08,35.08,0,0,0-.08-3.66c-.09-.13-.77-.15-3.46-.07-4.4.12-3.91.6-3.91-3.78v-3.58H739c-2.16,0-1.93-.44-1.93,3.85,0,4.1.48,3.64-3.64,3.51s-3.66-.59-3.66,3.52.21,3.85-2.27,3.85c-1.57,0-1.85,0-1.85.2s.46.2,3.72.17c3.65,0,3.72,0,3.7.23s0,1.52,0,3.05l0,2.79.07-2.92a14.71,14.71,0,0,1,.24-3.22l.17-.3H739c4.6,0,5.38,0,5.52.2s52.58.3,52.47,0,5-.3,5.25,0,.16.13.07,0,0-.18.28-.12c.53.11,1.12,0,1.12-.24s.06-.19.13-.19.13-.13.13-.3,0-.26-.13-.1-.13-5.43-.13-15.83c0-10.66,0-16,.13-15.95s.13,0,.13-.13-.06-.2-.13-.2-.13-.09-.13-.2-.28-.2-1.72-.2h-1.72v-7.3h1.68c1.67,0,1.69,0,1.84-.33s.1-.3,0-.26-.12-5-.12-12.33c0-8.32,0-12.42.13-12.45s.08-.18,0-.42l-.17-.37-1.69,0-1.7,0V279l1.69.06,1.68.06.15-.48c.08-.26.09-.48,0-.48s-.12-6.12-.11-14.1V249.7q0-.3-.24-.3a.65.65,0,0,1-.4-.16c-.12-.12-.16-.12-.16,0s0,.14-.22,0-.23-.14-.28,0-.21.16-.41.15l-.35,0,.33-.1c.29-.09.29-.11.06-.12a.6.6,0,0,0-.4.11,2.48,2.48,0,0,1-1.31.13,2.34,2.34,0,0,1-.09-.62c0-.54-.2-.74-.31-.4M637,267.45c0,11.77,0,19,.12,19,.27,0,.28-.64.27-16.61,0-9,0-16.49,0-16.64,0-4.32,0-4.71-.26-4.71-.07,0-.12,7.93-.12,19m7.37-17.92a.4.4,0,0,0,.34.14c.14,0,.25-.06.25-.14s-.15-.13-.34-.13-.3.06-.25.13m110.88,0c0,.08.15.14.33.14s.33-.06.33-.14-.15-.13-.33-.13-.33.06-.33.13M643,249.89c-.2.1-.37.25-.37.31a.13.13,0,0,1-.14.13c-.3,0-1.18,1.18-1.18,1.57s.23.33.51-.31c.15-.33.32-.6.39-.6s.19-.15.29-.33a.56.56,0,0,1,.49-.33c.17,0,.31-.06.31-.13s.15-.14.34-.14.3-.05.26-.12,0-.15.16-.18,0-.06-.23-.06a2,2,0,0,0-.83.19m2.57,0a.89.89,0,0,0,.53.23,2,2,0,0,1,.86.59,4.31,4.31,0,0,0,.63.57c.36,0-.55-1.08-1.17-1.41s-1.13-.26-.85,0m108.54-.07a.15.15,0,0,1-.16.13,3.35,3.35,0,0,0-1.43,1.52.34.34,0,0,1-.13.27.35.35,0,0,0-.14.28c0,.1.06.19.14.19s.13-.11.13-.25a.82.82,0,0,1,.26-.48c.15-.13.23-.29.19-.35s0-.12.08-.12.21-.15.29-.33a.51.51,0,0,1,.46-.33c.17,0,.31-.06.31-.13s.11-.14.24-.14a.73.73,0,0,0,.42-.16c.14-.14.16-.13.07,0s0,.15.05.09c.29-.18.15-.34-.31-.34-.26,0-.47.06-.47.13m2.29,0c.09.26.77.3.77,0s-.13-.2-.41-.2-.39.05-.36.16m.9.24c0,.17.39.6.4.44s.09,0,.19.13.21.19.27.08-.06-.28-.28-.47c-.42-.34-.58-.39-.58-.18m1,.82c0,.1.12.27.16.4s.14.23.2.23.12.25.12.55,0,.52.16.48c.37-.12.2-.89-.34-1.59-.21-.27-.41-.31-.3-.07m-110.6.77c0,.17.06.26.16.23a.27.27,0,0,0,.17-.23.29.29,0,0,0-.17-.24c-.1,0-.16.07-.16.24m.31.59c-.1.27,0,.87.22.87s.13-.24.13-.53c0-.53-.2-.72-.35-.34m-7,.87c0,.44.06.79.13.79s.14.17.14.37c0,.44.41,1,.75,1s.2,0,.06.12.72,1.11,1,1,.21-.35-.11-.35-.35-.08-.35-.2-.06-.2-.14-.2-.1-.06-.06-.13,0-.2-.19-.3a.53.53,0,0,1-.27-.33c0-.1-.06-.17-.13-.17s-.13-.15-.13-.32-.06-.37-.14-.41a1.89,1.89,0,0,1-.13-.87c0-.61,0-.79-.2-.79s-.2.18-.2.8m117.89,0a3.9,3.9,0,0,1-.32,1.54.2.2,0,0,0-.12.17,3.12,3.12,0,0,1-1.33,1.18c-.17,0-.23.06-.18.2s.13.19.19.19a.64.64,0,0,0,.31-.19.69.69,0,0,1,.28-.2,3.78,3.78,0,0,0,1.13-1.25.37.37,0,0,1,.13-.28,3,3,0,0,0,0-1.66c-.06,0-.11.14-.12.3m-110.83.26c-.23.23-.2.77,0,.77s.2-.14.2-.47c0-.51,0-.53-.24-.3m104.05.86c.06.33.37.38.37,0,0-.16-.09-.27-.21-.27a.16.16,0,0,0-.16.22m-104.47.37c0,.11-.06.2-.14.2s-.13.12-.13.27-.06.26-.14.26c-.31,0-.71.52-.47.61s.88-.52.88-.84a.3.3,0,0,1,.2-.25.31.31,0,0,0,.2-.26.2.2,0,0,0-.4,0m104.93,0c-.27.28.69,1.46,1.07,1.32.21-.08.12-.28-.13-.28-.07,0-.2-.11-.29-.26a1.5,1.5,0,0,0-.22-.33,1.6,1.6,0,0,1-.21-.3c-.07-.13-.17-.2-.22-.15M646.07,256.2a.24.24,0,0,0,.46,0c0-.1-.06-.16-.23-.16s-.27.06-.23.16m107.6-.06c0,.2,1.05.58,1.34.49s.07-.32-.52-.33c-.23,0-.43-.06-.43-.13s-.09-.13-.2-.13-.19,0-.19.1m-110.21.36c.09.22.65.28.77.08s-.22-.28-.59-.28c-.17,0-.23.07-.18.2m1.73,0a.43.43,0,0,0,.39.2c.2,0,.32-.08.32-.2s-.13-.2-.39-.2-.38.05-.32.2m110.89,0c.07.2.63.24.64,0s-.15-.15-.34-.17-.34,0-.3.13m45.59,22.9a2,2,0,0,0,.6,0c.16,0,0-.06-.3-.06s-.46,0-.3.06m-145.62,3.55c-2.22.42-2.39.56-2.36,1.91a5.1,5.1,0,0,0,1.5,3.52c.74.78.75.91.13,1.47a3.18,3.18,0,0,0-.85,1.85,3.08,3.08,0,0,1-.67,1.43,3.77,3.77,0,0,0-.58,4.3,12.86,12.86,0,0,1,.71,1.72,5.63,5.63,0,0,0,1.59,2.77,19.21,19.21,0,0,0,2.77,1.8,3.33,3.33,0,0,1,.73.43,3.08,3.08,0,0,0,2.52.76c1.12,0,1.35,0,1.81-.32l1.18-.7c3.21-1.84,4.05-2.72,4.66-4.89a7.09,7.09,0,0,1,.46-1.19,3.65,3.65,0,0,0-.3-4.54,2.9,2.9,0,0,1-.71-1.5,5.74,5.74,0,0,0-1.3-2.46c-.08-.11.07-.38.53-.88a4.61,4.61,0,0,0,1.45-3.49v-1.19l-.62-.31c-2.18-1.08-5.2-.82-6.52.56-.71.74-.64.74-1.28,0-1.06-1.15-2.67-1.51-4.86-1.09m3.76.48a4.06,4.06,0,0,1,1,.88c.54.66.87.71,1.18.2a4.36,4.36,0,0,1,1-.9l.75-.53h1.59c2.18,0,3.53.39,3.79,1.08.35.91-.42,3.07-1.47,4.11-.76.75-.8,1-.24,1.57a3.82,3.82,0,0,1,1,2.13,2.89,2.89,0,0,0,.47,1.12,3.59,3.59,0,0,1,.65,4.34,10.36,10.36,0,0,0-.64,1.59c-.55,1.91-1.16,2.65-3.14,3.82-.61.35-1.44.86-1.84,1.12-1.63,1.06-3.32,1.12-4.53.16a12.24,12.24,0,0,0-1.26-.76,15.34,15.34,0,0,1-2.65-1.78,6,6,0,0,1-1.4-2.58,11.7,11.7,0,0,0-.63-1.59,3.63,3.63,0,0,1,.31-3.9c.64-.74.87-1.16.87-1.64a3.73,3.73,0,0,1,1-2.07c.59-.7.62-.52-.24-1.5-1.51-1.73-2-4.08-1.07-4.63,1.26-.7,4.39-.85,5.48-.25m5.14.2c-1.73.26-2.86,1.22-2.86,2.43,0,1,.64,1.16,1.74.47.64-.41,1-.43.44,0-1.36,1-1.33,1.71.12,2.33a1.52,1.52,0,0,0,1.25,0l.62-.29a5.12,5.12,0,0,0,2.25-3c0-.22.11-.57.16-.77a.64.64,0,0,0-.13-.62c-.2-.21-.41-.29-1.27-.48a12.18,12.18,0,0,0-2.32-.11m-9.69.22-.58.18a3.83,3.83,0,0,0,.06,2.19c.08.1.3.47.5.81a4.24,4.24,0,0,0,2,1.69.39.39,0,0,1,.32.14c.12.19.77.16,1.28-.07,1.36-.59,1.39-1.22.12-2.22-.57-.44-.32-.48.37-.06,1,.63,1.2.66,1.56.27,1.59-1.72-2.64-3.94-5.58-2.93m4,.39a2,2,0,0,1,1.24.72c.75,1,.45,2.16-.42,1.68a36.48,36.48,0,0,0-3.6-1.76c-.4,0-.12.27,1.09,1.05,2.19,1.43,2.46,1.82,1.69,2.37-1.74,1.23-4.12-.63-4.5-3.53-.12-.89,2.36-1.18,4.5-.53m8.19-.23c.71.14,1,.4,1,.87-.21,2.67-2.83,4.65-4.48,3.39-.75-.58-.38-1.08,1.69-2.3,1-.61,1.4-.9,1.25-1.05a9.14,9.14,0,0,0-2.81,1.23c-1.49.85-2.06.63-1.65-.62s2.61-2,5-1.52m-22.53,2.57c-.13.08-.16,2.75-.13,12.9l0,12.8h3.59l0-12.61c0-6.93,0-12.74,0-12.9-.08-.31-3-.48-3.49-.19m15.78,2.58c-1.71.55-1.73,1.9,0,2.47.77.25,2.53.06,2.53-.28,0-.06.09-.1.2-.1a.46.46,0,0,0,.33-.26c.63-1.17-1.36-2.36-3-1.83m1.81.3c1.13.47,1.4,1.15.66,1.68-1.36,1-4.58-.21-3.29-1.21a2.53,2.53,0,0,1,2.63-.47m-5.33.12c-1.25.45-2.51,2.49-1.8,2.93.32.2,2.46-1.41,3.3-2.49.43-.55-.45-.81-1.5-.44m7.38-.09c-.56.09-.36.6.59,1.49,1.9,1.78,2.43,2,2.43.94a2.77,2.77,0,0,0-3-2.43m-6.13.35c0,.44-2.63,2.54-2.87,2.3s.09-1,.48-1.45c.66-.8,2.39-1.42,2.39-.85m7.51.13A2.65,2.65,0,0,1,667.4,292c0,.35-.19.32-.84-.13-2.29-1.58-2.75-2.92-.67-1.95m-2.55,1.93c-2,.89-1.68,3.67.47,4.7a2.08,2.08,0,0,0,2.86-1.07c.8-1.91-1.54-4.45-3.33-3.63m-4.78,0a3.58,3.58,0,0,0-2.1,1.89,2.18,2.18,0,0,0,3.5,2.5c2-1.72,1-4.89-1.4-4.39m6.46.31a2.69,2.69,0,0,1,1.34,3.38c-.64,1.21-1.76,1.36-3.05.41-2.2-1.63-.69-5,1.71-3.79m-5.16.08a2,2,0,0,1,.93,1.77c0,2.12-2.38,3.42-3.74,2.06-1.63-1.64.77-4.91,2.81-3.83m7.74,1.12a4,4,0,0,0-.08,2.62.62.62,0,0,1,.15.38c0,1,.87,1.36,1.27.54.77-1.63-.26-4.36-1.34-3.54m-13,.12a2.83,2.83,0,0,0-.66,3.4c.73,1.07,1.4.28,1.52-1.81.1-1.64-.14-2.09-.86-1.59m14.14.73c.51.75.3,2.92-.29,2.92-.4,0-.87-1.43-.87-2.66s.45-1.3,1.16-.26m-13.53.47c.06,1.58-.44,2.94-.89,2.41a2.39,2.39,0,0,1,.19-3.19c.53-.53.65-.4.7.78m5.63,1.91c-2.39.81-2.31,3.61.12,4.43a2.39,2.39,0,0,0,2.25-4.12,6.72,6.72,0,0,0-1.63-.56l-.74.25m2.2.5c1.82,1.33.27,4.36-1.92,3.75-2.93-.82-2-4.6,1.06-4.09a2.28,2.28,0,0,1,.86.34m3.39.52c-1.79,1.22-2.67,3.3-1.75,4.16.3.28,1.09.37,1.24.14a.36.36,0,0,1,.3-.14,1.78,1.78,0,0,0,.73-.41c2-1.6,1.47-5.1-.52-3.75m1.19.11c.75.75.23,2.74-.92,3.53-2.34,1.61-3-.84-.76-2.94.84-.8,1.31-1,1.68-.59m-12.39.2c-.67.68-.16,2.6.92,3.42.7.54,2.14.65,2.39.18.86-1.6-2.1-4.81-3.31-3.6m1.84.5c1.51,1.21,1.83,3.22.52,3.22a2.62,2.62,0,0,1-2.36-2.76c0-1.07.82-1.28,1.84-.46m3.74,3.48c-1.46.16-2,.69-1.4,1.33a2.91,2.91,0,0,0,4.08.17c1.09-1-.25-1.78-2.68-1.5m2.38.33c1.57.82-1.19,2.18-2.85,1.42-1.16-.54-1.22-1.05-.16-1.44a6.63,6.63,0,0,1,3,0M637,331.19c0,17.28,0,19.71.32,19,.11-.28.11-37.58,0-37.76a.27.27,0,0,0-.2-.11c-.07,0-.12,7.17-.12,18.88m81.68-15c0,.09-.05,6.73,0,14.76l0,14.6h3.59l0-14.68,0-14.68-.3-.08a10.6,10.6,0,0,0-3.36.08m-37,14.91c0,.11-.08,5.06-.08,11v10.79l-.3.08c-.39.1-13.74.1-14.13,0l-.3-.08V342.05l-.56-.08c-.84-.12-14,0-14.13.11s-.09,2.5-.07,5.41l0,5.3-.32.12c-.17.07-2.83.12-5.91.12s-5.64,0-5.69.08c-.23.23.67.27,6,.27H652v3.36l.39.14c.25.08.4.09.4,0s2.49-.11,6.67-.09c4.76,0,6.66.07,6.64.18s.15.06.43-.07.46-.31.46-.43a.41.41,0,0,1,.15-.32c.09-.06.1-.12,0-.17a4.25,4.25,0,0,1-.21-1.35l-.09-1.26,7.4,0,7.4,0,0,.43a26.29,26.29,0,0,0,0,2.8c.25.21.9.43.87.31s31.44-.3,31.68-.11c.6.45.81,0,.82-1.76l0-1.7,1.94,0c1.67,0,1.94,0,1.94-.19s-.25-.2-1.65-.2a10.64,10.64,0,0,1-2-.13l-.34-.13,0-10.92,0-10.92-16.55,0c-15,0-16.54,0-16.62.18m-38,11c-.29.1-.18.3.16.3.19,0,.34-.05.34-.12s-.29-.25-.5-.18m1.59,0c-.31.13-.17.31.24.31s.4-.05.36-.16-.34-.25-.6-.15m109.13.13a.77.77,0,0,1-.43.19,4.07,4.07,0,0,0-1.5,1.44c0,.3.37.13.53-.25.09-.22.21-.37.26-.34s.17-.06.28-.2a.63.63,0,0,1,.42-.26.35.35,0,0,0,.32-.2.43.43,0,0,1,.39-.2c.4,0,.53-.21.19-.3a.51.51,0,0,0-.46.12m1.79.05c-.15.1-.1.13.23.13s.43-.06.43-.13-.4-.17-.66,0m-113.66.46a1.35,1.35,0,0,1-.48.34.13.13,0,0,0-.13.13c0,.07.12.13.27.13s.26-.06.26-.13.09-.13.21-.13.17-.06.12-.14,0-.13.19-.13.28-.09.28-.2c0-.3-.32-.24-.72.13m3.5-.22s.21.21.47.35.46.3.46.36.08.11.18.11.24.21.34.47.25.46.35.46c.26,0,.25-.25,0-.35a.33.33,0,0,1-.2-.29c0-.3-.58-.95-.85-.95s-.21-.06-.21-.13-.12-.14-.27-.14-.27.05-.27.11m111,0c0,.07,0,.13,0,.13a1.64,1.64,0,0,1,.5.33,1.65,1.65,0,0,0,.49.33s.1.07.1.15a.74.74,0,0,0,.24.37,3.09,3.09,0,0,1,.45,1.84c0,.23,0,.43.11.43s.13-.42.13-.93-.06-.93-.14-.93-.13-.1-.13-.23a3.46,3.46,0,0,0-1.2-1.36.13.13,0,0,1-.13-.13c0-.08-.08-.14-.19-.14a.33.33,0,0,0-.27.14M641.49,343.9a1.77,1.77,0,0,0-.23.67c0,.14-.06.25-.14.25s-.13.36-.13.8.06.79.13.79.14.16.14.34c0,.57,1.17,2.05,1.63,2.05a.34.34,0,0,1,.29.14c.12.19.63.16.56,0a.28.28,0,0,0-.27-.15.18.18,0,0,1-.22-.16c0-.1-.13-.19-.28-.19-.39,0-1.31-1-1.31-1.49,0-.2-.06-.36-.14-.36s-.16-1.51,0-1.72.12-.16,0-.07-.17.07,0-.08a.66.66,0,0,0,.17-.36.65.65,0,0,1,.19-.38c.25-.24.26-.45,0-.44s-.27.18-.4.4m110.67.35c-.16.15-.09.44.1.44s.21-.12.25-.27-.16-.37-.35-.17m-104.27.47c0,.33.17.77.28.77s.12-.21.12-.47-.06-.46-.2-.46a.18.18,0,0,0-.2.16M648,346c-.18.48-.16.72.07.72s.2-.15.2-.53c0-.61-.08-.67-.27-.19m110.71.73a1.33,1.33,0,0,1-.29.69.91.91,0,0,0-.26.52.22.22,0,0,1-.19.24c-.27,0-.88.34-.78.44s0,.09-.19.09c-.42,0-.7.14-.7.35s.34.23.84,0a5.14,5.14,0,0,0,1.68-1.65A.41.41,0,0,1,759,347c.2-.12.17-.73,0-.73s-.18.18-.2.41m-6.53.12c0,.15.06.27.14.27s.13-.12.13-.27-.06-.26-.13-.26-.14.12-.14.26m-104.49.09a.55.55,0,0,0-.08.28,1,1,0,0,1-.33.5c-.17.16-.28.34-.24.38s0,.08-.14.08-.22.06-.22.13-.14.14-.3.14-.26,0-.1.13.1.13-.22.13-.85.32-.54.44,1.86-.85,2.12-1.53c.05-.13.15-.24.23-.24s.18-.35,0-.45a.18.18,0,0,0-.2,0m104.76.44a1.35,1.35,0,0,0,.3.49c.76.9,1.29,1.21,1.29.77,0-.11-.12-.2-.27-.2s-.66-.28-.66-.52c0-.07,0-.14-.11-.14s-.15-.12-.19-.26-.36-.38-.36-.14m1.69,1.41c-.21.21-.08.32.37.32.25,0,.46-.06.46-.13s-.08-.14-.19-.14a1.21,1.21,0,0,1-.37-.07.28.28,0,0,0-.27,0m-109.72.45c0,.07.12.13.27.13s.26-.06.26-.13-.12-.13-.26-.13-.27.06-.27.13m110.82,0c0,.07.11.13.25.13a.43.43,0,0,0,.34-.13c0-.07-.06-.13-.25-.13s-.34.06-.34.13m-118,1.73c0,.14.08.26.19.26s.2-.12.2-.26-.08-.27-.2-.27-.19.12-.19.27m.39.7c0,.09.16.28.36.43a3.56,3.56,0,0,1,.56.49c.25.29.41.3.41,0,0-.11-.06-.2-.14-.2a1.8,1.8,0,0,1-.6-.47c-.49-.5-.59-.55-.59-.29m1.63,1.12a.13.13,0,0,0-.09.18c.09.15.59.16.59,0s-.29-.26-.5-.18m81.49.66c.85,0,2.26,0,3.11,0s.16,0-1.56,0-2.41,0-1.55,0m-53.62,1.7c0,.29,0,.39.06.23a1.56,1.56,0,0,0,0-.53c0-.13-.06,0-.06.3m66,5.22c.14.53.43.56,6,.52a43.22,43.22,0,0,0,5.41-.17,42.42,42.42,0,0,0-5.53-.09c-5.53,0-5.58,0-5.58-.24s-.08-.27-.18-.27-.17.1-.13.25" transform="translate(0)"/><path id="path2" class="cls-20" d="M639.74,245.9c0,.14-.17.19-.35.14a.28.28,0,0,0-.35.12c0,.1-.13.19-.2.19a.75.75,0,0,0-.5.52c0,.08-.09.14-.2.14a.2.2,0,0,0-.2.2c0,.11-.06.2-.13.2s-.14.15-.14.33-.07.33-.21.33-.2.1-.14.5a10.76,10.76,0,0,1,.09,1.46c0,1.13.1,1.2.45.33.78-1.93,3.34-4.28,4.65-4.28.47,0,.16-.23-.41-.31-1.19-.16-2.27-.1-2.36.13m7.72-.12c-.66,0-1.13.3-.55.3,1.57,0,4.2,2.78,4.92,5.18l.3,1v-1.34c0-1.1,0-1.36.22-1.43.39-.15,95.34-.09,95.62.06s.25.29.26,1.29V252l.19-.69a7.75,7.75,0,0,1,5-5.29c.2-.08.09-.13-.47-.2-.72-.1-104-.12-105.54,0m110.72,0c-.55.07-.67.11-.47.19,4.1,1.63,6,5.21,5,9.11-2,7.19-12.3,7.08-14.25-.15l-.19-.71v1.22c0,1.16,0,1.23-.31,1.3s-21.76.05-48,0l-47.71,0-.07-1.4-.07-1.39-.17.77a7.4,7.4,0,0,1-14,1.12,1.67,1.67,0,0,0-.35-.63c-.06,0-.1,7-.1,15.53,0,13.69,0,15.54-.2,15.61s-.3,25.86,0,26,.2,1.92.2,15.6c0,8.55,0,15.53.1,15.53a4.54,4.54,0,0,0,.56-1,7.35,7.35,0,0,1,11.9-1.94,9.32,9.32,0,0,1,1.91,3.25c0,.14,0,.13.13,0a2.67,2.67,0,0,0,.13-.95c0-.66,0-.75.3-.82s13.48-.11,14,0l.41.08v10.82l.3.08c.39.1,13.74.1,14.13,0l.3-.08V342.05c0-6,0-10.91.11-11s3.5-.16,16.62-.13l16.52,0,0,10.92,0,10.92.34.13a10.64,10.64,0,0,0,2,.13c1.24,0,1.65,0,1.65.17s.77.16,3.39.16,3.38,0,3.38-.16.46-.17,1.85-.17c2.48,0,2.27.37,2.27-3.85s-.51-3.63,3.77-3.55c1.75,0,2.51,0,1.68,0a7,7,0,0,1-1.66-.17,69,69,0,0,1-.08-7.33l.07-7.21h10.88v14.6l-1.59.08c-1.14.06-.92.07.78,0,1.31,0,2.87-.05,3.47-.05h1.09l.09-.77c.86-7.67,11.79-9,14.25-1.7a4.25,4.25,0,0,0,.34.83s.08-5.35.08-12c0-10.9,0-12.1.21-12.17s8.42-.08,18.45-.08h18.24l0-3.68,0-3.69-14.66-.06-14.67-.07V286.49l14.67-.06,14.66-.07v-7.3L785.12,279l-14.67-.07,0-14.58c0-10.67,0-14.64.11-14.77s2.61-.18,14.67-.18c11.5,0,14.54,0,14.57-.16.18-.59.18-1.17,0-1.17s-.19-.13-.19-.33-.06-.33-.13-.33a.13.13,0,0,1-.13-.13,2.38,2.38,0,0,0-.93-.93c-.07,0-.13-.08-.13-.18s-.11-.16-.33-.12-.36,0-.42-.15-37.45-.3-39.33-.09M648.34,279.2c.2.53.09,33-.12,33.06s-.18.09,0,.23.2.62.17,3.67l0,3.51h-7.3l0-3.5c0-4.19.13-3.84-1.93-3.89l-1.62,0V286.49l1.73-.06,1.73-.07.07-3.65c0-2,.08-3.66.1-3.68a49.79,49.79,0,0,1,7.24.17m114.55,9.09v9.22l-9.08,0c-7.18,0-9.11,0-9.19-.13s-.15-18.2,0-18.33,4.18-.07,9.19-.05l9.1,0v9.23m-59.21-9c.11.27.11,28.77,0,29s-29,.32-29.24-.05-.19-28.83,0-29,29.12-.23,29.22,0m-43.91,3.78a4.91,4.91,0,0,1,1.14.88c.64.7.57.7,1.28,0,1.32-1.38,4.34-1.64,6.52-.56l.62.31v1.19a4.61,4.61,0,0,1-1.45,3.49c-.46.5-.61.77-.53.88a5.74,5.74,0,0,1,1.3,2.46,2.9,2.9,0,0,0,.71,1.5,3.65,3.65,0,0,1,.3,4.54,7.09,7.09,0,0,0-.46,1.19c-.61,2.17-1.45,3.05-4.66,4.89l-1.18.7c-.46.28-.69.32-1.81.32a3.08,3.08,0,0,1-2.52-.76,3.33,3.33,0,0,0-.73-.43,19.21,19.21,0,0,1-2.77-1.8,5.63,5.63,0,0,1-1.59-2.77,12.86,12.86,0,0,0-.71-1.72,3.77,3.77,0,0,1,.58-4.3,3.08,3.08,0,0,0,.67-1.43,3.18,3.18,0,0,1,.85-1.85c.62-.56.61-.69-.13-1.47-1.31-1.39-2.05-4.15-1.26-4.76,1.06-.81,4.58-1.08,5.84-.46m-3.32.79c-1.49.12-1.81.27-1.74.82.38,2.9,2.76,4.76,4.5,3.53.77-.55.5-.94-1.69-2.37-2.58-1.68-1.09-1.26,2.51.71.87.48,1.17-.71.42-1.68-.56-.75-2.19-1.15-4-1m8.3,0c-1.78.33-2.91,1.5-2.39,2.46.24.46.46.42,1.65-.25a9.14,9.14,0,0,1,2.81-1.23c.15.15-.2.44-1.25,1.05s-2.15,1.49-2.15,1.76c0,.7,1.59,1.16,2.55.74,1.66-.75,3.11-3.71,2.06-4.23a7.11,7.11,0,0,0-3.28-.3m-4.07,5.49c-.65.25-1.3.81-1.21,1.05.36.93,2.68,1.35,3.65.66,1.26-.9-.79-2.33-2.44-1.71m-3.73.5c-.91.46-1.81,1.84-1.44,2.21s2.87-1.86,2.87-2.3c0-.28-.77-.23-1.43.09m7.57-.05c-.13.32,2.25,2.43,2.74,2.43.32,0,.09-.87-.44-1.64s-2.12-1.27-2.3-.79m-.9,2.18c-1.7.51-1.87,2.82-.31,4,1.29.95,2.41.8,3.05-.41.86-1.62-1-4.08-2.74-3.57m-5.31.23c-2.42,1.11-2.42,4.4,0,4.4a2.41,2.41,0,0,0,2.14-1.28c1.06-1.8-.4-3.92-2.14-3.12m9.38,1.37c-.48.49.14,3.56.72,3.56s.8-2.17.29-2.92c-.41-.6-.8-.85-1-.64m-13.22.33a2.39,2.39,0,0,0-.19,3.19c.45.53,1-.83.89-2.41,0-1.18-.17-1.31-.7-.78m6.68,2.83a2,2,0,0,0-1.2,3.46,2.38,2.38,0,0,0,2.2.66,2.12,2.12,0,1,0-1-4.12m5.52,1c-1.47.81-2.63,3.12-1.92,3.83s2.23-.11,2.77-1.17c.81-1.6.28-3.28-.85-2.66m-11.31.39a2.72,2.72,0,0,0,0,1.95c.72,1.73,3,2.31,3,.76s-2.26-3.49-3-2.71m4.78,4.14c-1.06.39-1,.9.16,1.44,1.66.76,4.42-.6,2.85-1.42a6.63,6.63,0,0,0-3,0m65.75,6.5c.06.09.13,1.78.17,3.75l.07,3.58,1.66,0c1.36,0,1.68.07,1.82.25s.26,28.58.09,29c-.07.17-.34.21-1.56.21a14.06,14.06,0,0,0-1.78.08l-.3.08v3.5c0,3.32,0,3.5-.26,3.63a53.87,53.87,0,0,1-6.87.06l-.3-.08v-7.14l1.69,0,1.69,0-1.66-.08-1.66-.07,0-18.31c0-10.08,0-18.39,0-18.48s.89-.17,3.58-.17,3.54,0,3.62.17m12.35,29.52a15.32,15.32,0,0,0,1.66,0c.45,0,.08,0-.83,0s-1.29,0-.83,0m-86.42,9.39a8,8,0,0,1-4.92,5c-.22.07-.23.11-.07.21a24.27,24.27,0,0,0,5,0l.34-.13V350.3c0-2.52-.11-3.41-.31-2.63m111-.13c-.06.15-.26.63-.43,1.07-.71,1.75-3.25,4-4.48,4-.29,0-.4.22-.15.32a35.62,35.62,0,0,0,5.07,0c.13-.08.16-.75.13-2.89a11,11,0,0,0-.14-2.51m-14.47.16c-.28.28-.09,5.19.21,5.27,1,.26,5.82,0,4.94-.25a7.75,7.75,0,0,1-4.71-4.34c-.32-.81-.32-.8-.44-.68m-110.82.18a7.48,7.48,0,0,0,0,2.78c.11,0,.18.14.18.34s.9,1.39,1.19,1.39c.08,0,.14.09.14.21s.08.19.27.15a.51.51,0,0,1,.45.11,6.64,6.64,0,0,0,3,.05c0-.07-.11-.17-.24-.2a7.72,7.72,0,0,1-4.62-4.29c-.18-.43-.33-.66-.37-.54" transform="translate(0)"/><path id="path1" class="cls-21" d="M652.3,249.51c-.13.08-.16.91-.13,3.68l0,3.58,47.71,0c26.24,0,47.84,0,48,0l.3-.07v-3.51c0-3.34,0-3.52-.25-3.65s-95.41-.19-95.67,0M641.1,279s-.06,1.68-.1,3.68l-.07,3.65-1.73.07-1.73.06v25.75l1.62,0c2.06.05,1.89-.3,1.93,3.89l0,3.5h7.3l0-3.54c0-4.18.21-3.85-1.86-3.82h-1.59c-.22,0-.23-.68-.2-12.91l0-12.91,1.72,0c1.18,0,1.76-.09,1.83-.2a69,69,0,0,0,0-7.05,47.11,47.11,0,0,0-7.24-.18m103.5.05c-.13.13-.11,18.13,0,18.33s2,.16,9.19.13l9.08,0V279.06l-9.1,0c-5,0-9.14,0-9.19.05m-61.05.21c-.21.21-.23,28.65,0,29s29.11.41,29.25.05.1-28.77,0-29-28.95-.33-29.23,0m35.14,29.47c0,.09-.05,1.75,0,3.68l0,3.52,1.8.06,1.79.07,0,14.66c0,13.67,0,14.68-.19,14.84a5.27,5.27,0,0,1-1.86.16h-1.63v7.14l.3.08a53.87,53.87,0,0,0,6.87-.06c.25-.13.26-.31.26-3.63v-3.5l.3-.08a14.06,14.06,0,0,1,1.78-.08c1.22,0,1.49,0,1.56-.21.17-.45.09-28.79-.09-29s-.46-.23-1.82-.25l-1.66,0-.07-3.58c0-2-.11-3.66-.17-3.75a36.09,36.09,0,0,0-7.2,0M733.57,331c-.12.2-.09,14.39,0,14.51a7.63,7.63,0,0,0,1.76.08l1.65,0,0-3.54c.05-4.21-.16-3.85,2.13-3.8l1.55,0,.08,3.65c0,2,.08,3.67.1,3.69s.82,0,1.78,0l1.76,0V331l-5.4,0c-3,0-5.43,0-5.47.08m.07,22.23a17.63,17.63,0,0,0-.12,3.75l0,3.57,4.84,0c2.67,0,5.16,0,5.54,0l.7-.09V357c0-3,0-3.52-.21-3.7s-10.55-.32-10.79,0" transform="translate(0)"/><path id="path3" class="cls-22" d="M642.72,246c0,.07-.09.13-.21.13a7.53,7.53,0,0,0-2.76,1.6,7.3,7.3,0,0,0,.06,10.92c6.08,5.51,15.19-1.71,11.36-9-.76-1.44-3.27-3.52-4.26-3.52-.12,0-.21-.06-.21-.13a15.3,15.3,0,0,0-4,0m110.81,0-.93.44c-7.16,3.15-4.91,14,2.92,14.08s10.34-10.63,3.38-13.92l-1.29-.61a18,18,0,0,0-4.08,0M645,249.53c0,.08-.11.14-.25.14a.4.4,0,0,1-.34-.14c0-.07.06-.13.25-.13s.34.06.34.13m110.95,0c0,.08-.15.14-.33.14s-.33-.06-.33-.14.15-.13.33-.13.33.06.33.13m-111.19.25c.42.06.73.05.69,0s.56-.12,1,.08,1.26,1.09,1.26,1.33a.31.31,0,0,0,.2.26c.14.06.18.18.12.41s-.05.33.13.26.21.06.21,1,0,1.08-.2,1.08-.18.09-.12.31,0,.34-.13.4a.3.3,0,0,0-.21.25c0,.25-.6.9-.83.9a.36.36,0,0,0-.29.2c0,.14-.17.18-.34.13s-.27,0-.27.09-2.35.26-2.45,0a.24.24,0,0,0-.3-.1,2.31,2.31,0,0,1-1.23-.92,1.89,1.89,0,0,0-.33-.44,1.21,1.21,0,0,1-.33-.72c0-.2-.06-.37-.14-.37s-.13-.35-.13-.79c0-.59,0-.8.18-.8s.16-.11.12-.33c-.08-.41.79-1.66,1.15-1.66a.13.13,0,0,0,.14-.13c0-.4.9-.57,2.15-.42m112.39.11a.11.11,0,0,0,.17.1c.22-.09,1.32,1,1.6,1.55a6.29,6.29,0,0,1,.08,3,.37.37,0,0,0-.13.28,3.78,3.78,0,0,1-1.13,1.25.77.77,0,0,0-.29.2.45.45,0,0,1-.45.12c-.17-.05-.25,0-.22.09.09.44-2.86.14-3.06-.31a.19.19,0,0,0-.17-.1,2.77,2.77,0,0,1-1-1.21.3.3,0,0,0-.17-.29,6.86,6.86,0,0,1,.05-2.81.47.47,0,0,0,.12-.3,3.4,3.4,0,0,1,1.43-1.5c.09,0,.16-.05.16-.11a6.26,6.26,0,0,1,1.53-.1c1.12,0,1.53.05,1.53.17M642.69,338.52a7.39,7.39,0,0,0-.32,14.13.43.43,0,0,1,.32.22,11.47,11.47,0,0,0,4.08-.05c.14-.08.68-.33,1.19-.57a7.65,7.65,0,0,0,4.1-5.84,7.51,7.51,0,0,0-9.37-7.89m110.66.08a7.37,7.37,0,0,0-1,13.61l1.25.61a13.78,13.78,0,0,0,4,0,.55.55,0,0,1,.33-.15c.89,0,3.31-1.9,4.06-3.19.89-1.55,1.39-4.6.89-5.54-.06-.12-.22-.53-.35-.89a7.51,7.51,0,0,0-9.13-4.43m-107.48,3.67c0,.09.2.16.37.16s.33.06.33.14.09.13.21.13.85.65.85.95a.32.32,0,0,0,.21.29c.13.06.18.17.12.35s0,.27.12.27.21.18.21,1.06,0,1.06-.2,1.06-.18.09-.12.33,0,.33-.07.33-.19.11-.24.24a2.78,2.78,0,0,1-2.24,1.51c-.25,0-.45,0-.45.11s-.12.13-.26.13-.27-.06-.27-.13-.26-.13-.59-.13a1.22,1.22,0,0,1-.67-.13.34.34,0,0,0-.29-.14c-.46,0-1.63-1.48-1.63-2.05,0-.18-.06-.34-.14-.34s-.13-.35-.13-.79.06-.8.13-.8.14-.11.14-.25c0-.29.41-1.07.56-1.07s.1-.1.1-.2.06-.2.13-.2a1.35,1.35,0,0,0,.48-.34,1.23,1.23,0,0,1,.61-.33.73.73,0,0,0,.43-.16,3.91,3.91,0,0,1,2.3,0m111,0c0,.07.15.12.33.12s.33.06.33.14a.13.13,0,0,0,.13.13,3.46,3.46,0,0,1,1.2,1.36c0,.13.06.23.13.23s.14.53.14,1.32A3.86,3.86,0,0,1,759,347a.41.41,0,0,0-.13.31c0,.59-1.89,1.95-2.51,1.82-.22-.05-.42,0-.47.05s-.6.19-.6,0-.28-.13-.61-.13-.6,0-.54-.19,0-.16-.16-.12c-.31.08-1.48-1.08-1.48-1.47a.23.23,0,0,0-.12-.23,7.12,7.12,0,0,1-.05-2.87.28.28,0,0,0,.17-.26,3.71,3.71,0,0,1,1.5-1.49.72.72,0,0,0,.41-.17,5.11,5.11,0,0,1,2.47,0" transform="translate(0)"/><path id="path4" class="cls-23" d="M800.25,249.26c0,.13.19.2.45.15l.9,0c1.15,0,.93-.17-.29-.22-.7,0-1.06,0-1.06.1M803.7,264c0,9.45,0,14.2.12,14.2s.2-28.22,0-28.33-.13,5.11-.14,14.13m-50.41-13.34c-.08.18-.22.33-.29.33s-.11.06-.07.13.87-.58.87-.73-.39,0-.51.27m4.36-.12c0,.15.65.77.73.7s0-.16-.15-.3-.19-.21-.19-.15-.08,0-.19-.14-.2-.19-.2-.11m.79,1.18c0,.11.06.2.13.2s.14-.09.14-.2-.06-.2-.14-.2-.13.09-.13.2m.43.89c-.19.19-.23,1,0,.85s.1-.18.08-.31a.36.36,0,0,1,.1-.32.2.2,0,0,0,.08-.23c0-.12-.1-.11-.22,0M642.4,255.49c0,.08,0,.15,0,.15s.14.09.14.2a.2.2,0,0,0,.2.2.18.18,0,0,0,.2-.16c0-.08,0-.11-.09-.06s-.16,0-.25-.19-.18-.24-.24-.14m157.88,23.83c0,.35.17.46.26.19,0-.09.5-.16,1.27-.17,1.4,0,1.69-.21.33-.22a12.84,12.84,0,0,1-1.4-.07c-.46-.07-.49-.06-.46.27m-144.09,3.79c-1.88.32-2.25.54-2.3,1.4a5.14,5.14,0,0,0,1.51,3.76c.86,1,.83.8.24,1.5a3.73,3.73,0,0,0-1,2.07c0,.48-.23.9-.87,1.64a3.63,3.63,0,0,0-.31,3.9,11.7,11.7,0,0,1,.63,1.59,6,6,0,0,0,1.4,2.58,15.34,15.34,0,0,0,2.65,1.78,12.24,12.24,0,0,1,1.26.76c1.21,1,2.9.9,4.53-.16.4-.26,1.23-.77,1.84-1.12,2-1.17,2.59-1.91,3.14-3.82a10.36,10.36,0,0,1,.64-1.59,3.59,3.59,0,0,0-.65-4.34,2.89,2.89,0,0,1-.47-1.12,3.82,3.82,0,0,0-1-2.13c-.56-.54-.52-.82.24-1.57,1.05-1,1.82-3.2,1.47-4.11-.26-.69-1.61-1.08-3.79-1.08h-1.59l-.75.53a4.36,4.36,0,0,0-1,.9c-.31.51-.64.46-1.18-.2-.91-1.11-2.54-1.52-4.66-1.16m11.08.59c.86.19,1.07.27,1.27.48a.64.64,0,0,1,.13.62c0,.2-.12.55-.16.77a5.12,5.12,0,0,1-2.25,3l-.62.29a1.52,1.52,0,0,1-1.25,0c-1.45-.62-1.48-1.3-.12-2.33.52-.4.2-.38-.44,0-1.1.69-1.74.52-1.74-.47,0-1.78,2.51-2.91,5.18-2.32m-8.4.1c1.84.47,2.85,2,2,2.94-.36.39-.53.36-1.56-.27-.69-.42-.94-.38-.37.06,1.27,1,1.24,1.63-.12,2.22-.51.23-1.16.26-1.28.07a.39.39,0,0,0-.32-.14,4.24,4.24,0,0,1-2-1.69c-.2-.34-.42-.71-.5-.81a3.83,3.83,0,0,1-.06-2.19l.58-.18a11.18,11.18,0,0,1,3.61,0M800.25,286c0,.35,0,.43.21.37a7.33,7.33,0,0,1,1.39-.08c.7,0,1.18-.06,1.18-.14s-.49-.13-1.21-.13c-1,0-1.24,0-1.39-.23s-.18-.19-.18.21m3.45,13.63c0,8,0,12.52.13,12.47s.18-25,0-25-.13,4.11-.13,12.55M662.39,289.11c.66.19,1.43.89,1.43,1.29s-.24.81-.47.81-.2,0-.2.1c0,.63-2.48.5-3.4-.18-1.35-1,.73-2.59,2.64-2m-3.75.44c.23.27-.15.73-1.64,2-1.29,1.09-1.81,1.2-1.81.38,0-1.46,2.68-3.31,3.45-2.37m7.58.28c1.07.62,1.89,2.7,1.07,2.7-.57,0-3.07-2.22-3.07-2.72s1.11-.5,2,0M665,292a3,3,0,0,1,1.64,3.54c-1,2.43-4.67,1.12-4.63-1.66a2,2,0,0,1,3-1.88m-4.81.31c1.2.85,1.07,2.89-.26,4a2.18,2.18,0,0,1-3.5-2.5c.82-1.74,2.51-2.43,3.76-1.53m8.32,1.4a3,3,0,0,1,.4,3.29c-.4.82-1.27.46-1.27-.54a.62.62,0,0,0-.15-.38,4,4,0,0,1,.08-2.62c.38-.29.45-.27.94.25m-13.2,0a6.82,6.82,0,0,1-.24,3.24c-.52,1.11-1.5.34-1.5-1.18s1.26-3,1.74-2.06m6.93,3a2,2,0,0,1,1.46,1.05c1.19,1.74-.77,4.13-2.81,3.44-2.78-.94-2.36-4.08.62-4.68,0,0,.36.08.73.19m5.54,1.15c.84,1.18-.32,4.09-1.63,4.09a.36.36,0,0,0-.3.14c-.29.46-1.44-.07-1.61-.74-.43-1.73,2.64-4.76,3.54-3.49m-11.25.16c1.37.58,2.48,2.68,1.94,3.68-.25.47-1.69.36-2.39-.18-1.87-1.43-1.5-4.33.45-3.5m7,4.3c1,.63-.45,2-2,2-1.12,0-2.68-1-2.36-1.56.46-.74,3.49-1,4.4-.46m136.76,10.58c0,.31.23.49.23.2,0-.08.51-.13,1.26-.13,1,0,1.26,0,1.26-.2s-.24-.2-1.39-.2h-1.39l0,.33m0,6.76c0,.18.22.21,1.4.21s1.39,0,1.35-.17-2.75-.31-2.75,0m3.45,16.89c0,10.4,0,16,.13,15.83s.18-31.67,0-31.78-.13,5.29-.13,15.95M642,343.63c0,.14,0,.26,0,.26a1,1,0,0,0,.18-.26c.1-.21.1-.27,0-.27s-.17.12-.17.27m116.77,2c0,.4,0,.41.13.13s.09-.34,0-.43-.13,0-.13.3m-.31,1.37c0,.11.06.2.13.2s.14-.09.14-.2-.06-.2-.14-.2-.13.09-.13.2m-.58.82c-.15.15-.09.31.12.31s.2-.06.2-.13-.21-.28-.32-.18m-4.73.12c0,.16.41.47.55.43s0-.16-.2-.28-.35-.2-.35-.15m43.76,5.27a32.47,32.47,0,0,0,6.14.16c.43-.13.31-.26-.27-.29-.39,0-.51,0-.44.13s0,.12-.09,0a19.48,19.48,0,0,0-5.34,0m-145.19.19a11.09,11.09,0,0,0,.19,2.83,4.8,4.8,0,0,0,.12-1.46c0-1.28-.1-1.72-.31-1.37m15.22.59c0,.39.08,1,.08,1.34s0,.63.1.63a5.87,5.87,0,0,0-.08-2.63c-.15,0-.17.08-.1.66m14.49-.56a11,11,0,0,0,.09,3,2.83,2.83,0,0,0,.08-1,7.74,7.74,0,0,1,.09-1.39c.1-.51-.07-.94-.26-.63m33.62,0a16.54,16.54,0,0,0,.14,2.73,3.94,3.94,0,0,0,.11-1.29,5.67,5.67,0,0,0-.11-1.48c-.07,0-.13,0-.14,0m17.92-.06a1.12,1.12,0,0,0,0,.73c.06.12.11,0,.12-.29s-.06-.64-.12-.44m11.69.36c0,.15.09.27.2.27s.2-.12.2-.27a.21.21,0,1,0-.4,0m-91.84,3.18c0,.07-.1.09-.22.05s-.19,0-.12.07,1.92.15,7,.15c6.08,0,6.89,0,6.74-.2a130.47,130.47,0,0,0-13.4-.07m29.66,0a.16.16,0,0,1-.22.05c-.09-.06-.11,0,0,.06s32,.22,32.32,0,.17-.14,0-.07a.28.28,0,0,1-.31-.06c-.11-.18-31.61-.17-31.72,0" transform="translate(0)"/><line class="cls-24" x1="711.09" y1="387.54" x2="711.09" y2="387.95"/><path class="cls-25" d="M645,286.54c-.13.08-.16,2.75-.13,12.9l0,12.8h3.59l0-12.61c0-6.93,0-12.74,0-12.91s-3-.47-3.49-.18" transform="translate(0)"/><path class="cls-25" d="M748.21,353.29v-4a31.93,31.93,0,0,0-.08-3.65c-.08-.14-.77-.16-3.45-.08-4.41.13-3.91.6-3.91-3.78v-3.58H739c-2.16,0-1.94-.44-1.94,3.85,0,4.11.48,3.64-3.64,3.51s-3.66-.59-3.66,3.52v4.22" transform="translate(0)"/><path class="cls-25" d="M718.61,316.19c0,.09-.05,6.73,0,14.76l0,14.6h3.59l0-14.68,0-14.68-.3-.08a10.6,10.6,0,0,0-3.36.08" transform="translate(0)"/></g><path class="cls-20" d="M650.17,275.39c-.46.26-.51,35.9,0,36.39s64.32.51,64.62.06.24-36,0-36.39-64-.41-64.58-.06" transform="translate(0)"/><path class="cls-9" d="M662.52,280.36a1,1,0,0,0-.56.24,1.27,1.27,0,0,0-1.44.13c-.68-.09-.9.1-1.07.31-.15,0-1.12-.16-1.57.51-1.11-.13-1.46.65-1.06,1.39a1,1,0,0,0,.06,1.38c-.18.37-.07.78.38,1.27a1.08,1.08,0,0,0,.52,1.19c-.07.72.67,1.14.89,1.29.08.42.26.82,1.1,1,.14.63.65.74,1.14.87a5.33,5.33,0,0,0-3,5.23l-.24.43a5.15,5.15,0,0,0-.91,7.72,15,15,0,0,0,.71,2.33A5.69,5.69,0,0,0,661,310.2a11.9,11.9,0,0,0,3.38,1.91,5.59,5.59,0,0,0,4.16,1.87h.06a5.59,5.59,0,0,0,4.15-1.87,11.76,11.76,0,0,0,3.38-1.91,5.67,5.67,0,0,0,3.53-4.52,14,14,0,0,0,.72-2.33,5.15,5.15,0,0,0-.92-7.72l-.24-.43a5.32,5.32,0,0,0-3-5.23c.49-.13,1-.24,1.13-.87.85-.21,1-.61,1.11-1,.22-.15,1-.57.88-1.29a1.1,1.1,0,0,0,.53-1.19c.44-.49.56-.9.37-1.27a1,1,0,0,0,.07-1.38c.4-.74.05-1.52-1.07-1.39-.45-.67-1.41-.51-1.56-.51-.17-.21-.39-.4-1.07-.31a1.28,1.28,0,0,0-1.45-.13c-.6-.48-1-.1-1.46,0-.73-.24-.9.08-1.25.22-.8-.17-1,.2-1.43.58h-.44a5,5,0,0,0-2,2.89,5.09,5.09,0,0,0-2-2.89h-.45c-.38-.38-.62-.75-1.42-.58-.36-.14-.53-.46-1.26-.22a2.64,2.64,0,0,0-.9-.29Z" transform="translate(0)"/><path class="cls-7" d="M660.13,283.48a21.81,21.81,0,0,1,6.06,4.11c-.52,2.09-3.24,2.18-4.23,2.13a.76.76,0,0,0,.43-.39c-.25-.17-1.13,0-1.75-.36a.59.59,0,0,0,.46-.27,5.11,5.11,0,0,1-1.58-.66.86.86,0,0,0,.65-.13,6.06,6.06,0,0,1-1.51-.94c.27,0,.56,0,.64-.1a5.69,5.69,0,0,1-1.21-1,1,1,0,0,0,.63-.06,5.07,5.07,0,0,1-1-1.14.75.75,0,0,0,.72,0c-.12-.28-.65-.44-.95-1.09.3,0,.61.07.67,0a3.08,3.08,0,0,0-.6-1.19,11.67,11.67,0,0,0,1.55,0l-.39-.4a3,3,0,0,1,1.7.17c.21-.17,0-.37-.25-.58a5.9,5.9,0,0,1,1.42.36c.23-.21-.14-.42-.33-.62a3.72,3.72,0,0,1,1.5.58c.24-.24,0-.44-.16-.64a3.55,3.55,0,0,1,1.26.8c.11-.15.29-.26.08-.63a3.21,3.21,0,0,1,1,.88c.27-.17.16-.41.16-.62a10.48,10.48,0,0,1,1.09,1.14,1,1,0,0,0,.18-.5c1.08,1,2.6,3.67.39,4.71a20.72,20.72,0,0,0-6.59-3.52Z" transform="translate(0)"/><path class="cls-7" d="M677.06,283.48a21.65,21.65,0,0,0-6.06,4.11c.52,2.09,3.23,2.18,4.23,2.13a.75.75,0,0,1-.44-.39c.25-.17,1.13,0,1.75-.36a.59.59,0,0,1-.46-.27,5,5,0,0,0,1.58-.66.84.84,0,0,1-.64-.13,6.06,6.06,0,0,0,1.51-.94c-.27,0-.56,0-.65-.1a5.76,5.76,0,0,0,1.22-1,1,1,0,0,1-.63-.06,5.07,5.07,0,0,0,1-1.14.77.77,0,0,1-.73,0c.13-.28.65-.44,1-1.09-.29,0-.6.07-.67,0a3.23,3.23,0,0,1,.61-1.19,11.57,11.57,0,0,1-1.55,0l.39-.4a3,3,0,0,0-1.71.17c-.2-.17,0-.37.26-.58a6.11,6.11,0,0,0-1.43.36c-.23-.21.15-.42.33-.62a3.67,3.67,0,0,0-1.49.58c-.25-.24,0-.44.15-.64a3.5,3.5,0,0,0-1.25.8.43.43,0,0,1-.08-.63,3.21,3.21,0,0,0-1,.88c-.27-.17-.16-.41-.16-.62a10.48,10.48,0,0,0-1.09,1.14,1,1,0,0,1-.19-.5c-1.07,1-2.59,3.67-.39,4.71a20.88,20.88,0,0,1,6.6-3.52Z" transform="translate(0)"/><path class="cls-7" d="M672.46,304.73a3.84,3.84,0,0,1-7.65,0v0a3.84,3.84,0,0,1,7.65,0Z" transform="translate(0)"/><path class="cls-7" d="M666.42,294.66c1.59,1,1.87,3.39.64,5.25s-3.51,2.53-5.1,1.5h0c-1.58-1-1.87-3.39-.63-5.26s3.51-2.53,5.09-1.49Z" transform="translate(0)"/><path class="cls-7" d="M670.7,294.47c-1.59,1-1.87,3.39-.64,5.25s3.51,2.54,5.1,1.5h0c1.58-1,1.87-3.39.64-5.25s-3.52-2.54-5.1-1.5Z" transform="translate(0)"/><path class="cls-7" d="M658.51,296.35c1.71-.45.57,7.08-.82,6.46A4.08,4.08,0,0,1,658.51,296.35Z" transform="translate(0)"/><path class="cls-7" d="M678.27,296.26c-1.71-.46-.58,7.07.81,6.46a4.08,4.08,0,0,0-.81-6.46Z" transform="translate(0)"/><path class="cls-7" d="M672.46,290.65c2.95-.5,5.41,1.26,5.31,4.46C677.67,296.33,671.37,290.83,672.46,290.65Z" transform="translate(0)"/><path class="cls-7" d="M664.31,290.56c-3-.5-5.41,1.25-5.31,4.45.09,1.23,6.39-4.27,5.31-4.45Z" transform="translate(0)"/><path class="cls-7" d="M668.54,289.81c-1.76-.05-3.45,1.31-3.45,2.09,0,1,1.39,1.93,3.47,2s3.47-.78,3.47-1.77-1.92-2.3-3.49-2.28Z" transform="translate(0)"/><path class="cls-7" d="M668.65,309.36c1.54-.06,3.6.5,3.6,1.24s-1.87,2.36-3.7,2.33-3.76-1.55-3.74-2.12c0-.83,2.32-1.48,3.84-1.45Z" transform="translate(0)"/><path class="cls-7" d="M663,305c1.09,1.32,1.59,3.63.68,4.31-.86.52-3,.31-4.45-1.83-1-1.8-.88-3.63-.17-4.16,1.06-.65,2.69.22,3.94,1.68Z" transform="translate(0)"/><path class="cls-7" d="M674.11,304.53c-1.19,1.39-1.85,3.91-1,4.73.82.63,3,.54,4.67-1.73a4.35,4.35,0,0,0,.11-4.75c-1-.78-2.45.22-3.8,1.75Z" transform="translate(0)"/><path class="cls-21" d="M690.53,270.34c-.21.21-.23,28.66,0,29.05s29.1.41,29.24.05.11-28.77,0-29.05-28.94-.32-29.22-.05" transform="translate(0)"/></svg>