<svg id="Calque_1" data-name="Calque 1" xmlns="http://www.w3.org/2000/svg" xmlns:xlink="http://www.w3.org/1999/xlink" viewBox="0 0 459.17 467.64"><defs><style>.cls-1,.cls-10,.cls-11,.cls-4,.cls-5,.cls-9{fill:none;}.cls-2{fill:#7aa9d9;}.cls-3{fill:#b64a44;}.cls-4{stroke:#d0bbdf;stroke-width:0.01px;}.cls-4,.cls-5,.cls-9{stroke-linejoin:round;}.cls-10,.cls-11,.cls-5,.cls-9{stroke:#000;stroke-width:1.33px;}.cls-6{fill-opacity:0.2;}.cls-7{clip-path:url(#clip-path);}.cls-8{opacity:0.66;}.cls-9{stroke-dasharray:0.76 0.76;}.cls-10,.cls-11{stroke-miterlimit:7.11;}.cls-11{stroke-dasharray:0.75 0.75;}</style><clipPath id="clip-path" transform="translate(-190.04 -337.87)"><rect class="cls-1" x="78.82" y="316.39" width="698.68" height="497.14" transform="translate(-276.51 487.86) rotate(-46.6)"/></clipPath></defs><title>thtore</title><g id="Text"><g id="g44095"><g id="g44097"><path id="path44099" class="cls-2" d="M530.44,520.47c1,.91,13.59,25.36,31.9,7.9s8.94-57.22,7.27-60.61,39.74,7.36,39.74,7.36-17.8,87-25.39,90.79-51.83,26.7-53.68,22.21.16-67.65.16-67.65ZM594,368.37s-43.06-31.53-83.81-29.49-66.24,22.84-66.24,22.84l-97.13,106.6L461.63,456s-20.84-10.26-3.78-28.61,57.31-9.92,57.31-9.92L628,406C618.44,392.78,609.49,379.38,594,368.37Z" transform="translate(-190.04 -337.87)"/><path id="path44101" class="cls-2" d="M530.44,520.47c1,.91,13.59,25.36,31.9,7.9s8.94-57.22,7.27-60.61,39.74,7.36,39.74,7.36-17.8,87-25.39,90.79-51.83,26.7-53.68,22.21.16-67.65.16-67.65ZM594,368.37s-43.06-31.53-83.81-29.49-66.24,22.84-66.24,22.84l-97.13,106.6L461.63,456s-20.84-10.26-3.78-28.61,57.31-9.92,57.31-9.92L628,406C617.71,392.54,607.79,378.86,594,368.37Z" transform="translate(-190.04 -337.87)"/><path id="path44103" class="cls-3" d="M427.6,365.67c-32.09,24.78-60.37,66.39-97.57,74.84l55.75-3.4c62-12.24,40.82-95.19,124.4-98.23C480,338.86,450.68,347.86,427.6,365.67Zm120.51,72a85.38,85.38,0,0,1,18.6,25c12.21,24.74,25.5,55.78,10.92,83.09-7.78,14.55-24.89,15.92-32,3.23,0,0,.88,24.45,2.75,50s4.72,52.12,8.68,56.35c6.37-37.61,46.65-67.94,69.3-101.57,24.79-36.84,34.15-88.61,1.3-147.52-3.21-5.77-28.93-37.09-84.29-17.86-27.08,5.21-53.76,20-79.64,34.63,13.44-8.31,50.92-16.89,84.34,14.72Z" transform="translate(-190.04 -337.87)"/><g id="g44105"><path id="path44107" class="cls-2" d="M544.28,545.61c-.29-.46-1.64-2.64-3-4.86-5.94-9.84-17.59-22.76-26.58-29.5-13.85-10.38-29.07-16.23-48.19-18.46-7.16-.86-22.92-.41-30.21.85a192,192,0,0,0-41,12.74c-25.1,11.11-52.57,30.53-74.93,53-6.62,6.6-8.55,8.79-11.45,12.85A83.39,83.39,0,0,0,294,628.89c.2,1.65.2,2.89,0,2.7-.52-.5-4.16-16.74-5.44-24.29a231,231,0,0,1-3.13-44.9c1.18-30.61,8.89-58,22-78,4.34-6.65,17.34-20.57,23.68-25.33a108.91,108.91,0,0,1,28.62-15.88c21.62-8.08,42.74-8,69.89.2,20.38,6.21,39.22,15.81,57.73,29.42,6.4,4.72,25.22,22.71,30.34,29a202.84,202.84,0,0,1,23.69,36.79c2.91,5.94,4.1,8.83,2.88,7Z" transform="translate(-190.04 -337.87)"/></g><g id="g44109"><path id="path44111" class="cls-2" d="M501.57,754.93a184.09,184.09,0,0,1-121.12,49.34c-9.88.27-26.4-.53-28.14-1.36-.31-.16,3.19-.42,7.8-.62,12.32-.54,21.08-2.24,34.36-6.75,27.58-9.3,49.54-32.44,61.24-64.55,2.77-7.63,4.57-14.89,6.45-26.07,5.37-31.83,3.44-64.74-5.92-101.3-2.52-9.89-4.72-15.78-8.46-22.65-4.9-9.06-7.54-12.37-16.48-20.79-8.2-7.73-11.57-10.13-19.86-14.15a17.12,17.12,0,0,1-3.63-2.11c0-.5,18.17,5.22,25.4,8a220.94,220.94,0,0,1,50.89,27.15c6.63,4.76,25.42,22.36,29.95,28a109.92,109.92,0,0,1,24.57,68.31C538.91,706.32,527.52,730.79,501.57,754.93Z" transform="translate(-190.04 -337.87)"/></g><g id="g44113"><path id="path44115" class="cls-2" d="M419.43,692.07c-47.76,42.65-94.78,60.43-139.78,52.79-30.16-5.09-56.17-23.45-71.76-50.62-7.12-12.41-12.42-29.6-15.06-48.9a185.12,185.12,0,0,1,30.8-130.18c5.37-7.8,6.72-9.2,3.35-3.44-7.29,12.36-13,29.53-14.5,43.44a95.1,95.1,0,0,0,5.89,43.39c7.19,19.26,18.33,34.27,37.66,51,24.32,20.91,52.79,36.19,86.86,46.65,14.91,4.57,26.48,6.31,37.52,5.64,17.35-1.1,32.38-6.91,47-18.2C428.61,682.71,421.47,690.25,419.43,692.07Z" transform="translate(-190.04 -337.87)"/></g><g id="g44117"><path id="path44119" class="cls-3" d="M335.65,693.23c-28.83-9.81-52.6-22.6-74.25-40-8.27-6.58-22.46-20.68-26.82-26.56-9.15-12.41-15.33-25-18.8-38.07a94.21,94.21,0,0,1-1.14-42.93c5.77-26.07,17.81-45.84,39.23-64.54a185,185,0,0,1,98-44.38,246.32,246.32,0,0,1,33.5-1.27c3.81.2,7-.46,7.28-.31s-1.76,1.31-4.83,1.47c-38.22,1.78-75.57,28.92-90.68,65.86C284.71,533,281.52,569,287.86,606.73c3.62,21.35,9.41,40.81,15.59,52.18a84.34,84.34,0,0,0,36.08,34.66,15.85,15.85,0,0,1,2.89,1.67C342.39,695.42,339.37,694.51,335.65,693.23Z" transform="translate(-190.04 -337.87)"/></g><g id="g44121"><path id="path44123" class="cls-3" d="M424.72,777.25a88.45,88.45,0,0,1-29.8,17.44c-25.9,9.21-48.56,9.53-75.33,1a184,184,0,0,1-106-87.55c-3.26-6-7.17-14.22-6.48-13.63.2.19,1.5,2.07,2.87,4.24,5.11,8.05,8.37,11.94,16.89,20,6,5.71,9,8.22,12.22,10.4,19.21,12.88,39.36,18.5,63.86,17.89a116,116,0,0,0,26.83-3.44c33.44-7.7,71-30.57,99.43-60.66,4.17-4.41,9-9.89,10.79-12.18A82.1,82.1,0,0,0,457.73,619a24.31,24.31,0,0,1,.26-5.07c.48.46,2.9,13.66,4.1,22.36,3.57,25.59,3.13,50-1.37,73.49-3.66,19.22-10.4,35.57-20.63,50.09A126.76,126.76,0,0,1,424.72,777.25Z" transform="translate(-190.04 -337.87)"/></g><g id="g44125"><path id="path44127" class="cls-3" d="M529.32,720.49c16-32.8,12.57-73.84-8.69-105.38-9.76-14.49-27-30.83-44.94-42.45-20.28-13.19-45.52-24-71.36-30.48-14.21-3.58-22.22-4.57-32.58-4.08a80,80,0,0,0-39.22,11.95c-3.28,2.06-3.64,2.18-2.49.94a185.32,185.32,0,0,1,14.15-12.16c28.68-22.7,56.3-36.67,85.66-43.28,18.76-4.23,39.87-3.38,57.49,2.22a89.47,89.47,0,0,1,31.9,18c18.67,16.3,30.28,36.33,36.28,62.69a184.85,184.85,0,0,1-9.42,112.25c-4.49,10.91-12.56,25.8-17.75,32.78-1.13,1.5-.92.86,1-3Z" transform="translate(-190.04 -337.87)"/></g><path id="path44129" class="cls-2" d="M544.28,545.61c-.29-.46-1.64-2.64-3-4.86-5.94-9.84-17.59-22.76-26.58-29.5-13.85-10.38-29.07-16.23-48.19-18.46-7.16-.86-22.92-.41-30.21.85a192,192,0,0,0-41,12.74c-25.1,11.11-52.57,30.53-74.93,53-6.62,6.6-8.55,8.79-11.45,12.85A83.39,83.39,0,0,0,294,628.89c.2,1.65.2,2.89,0,2.7-.52-.5-4.16-16.74-5.44-24.29a231,231,0,0,1-3.13-44.9c1.18-30.61,8.89-58,22-78,4.34-6.65,17.34-20.57,23.68-25.33a108.91,108.91,0,0,1,28.62-15.88c21.62-8.08,42.74-8,69.89.2,20.38,6.21,39.22,15.81,57.73,29.42,6.4,4.72,25.22,22.71,30.34,29a202.84,202.84,0,0,1,23.69,36.79c2.91,5.94,4.1,8.83,2.88,7Z" transform="translate(-190.04 -337.87)"/><g id="g44131"><path id="path44133" class="cls-4" d="M544.28,545.61c-.29-.46-1.64-2.64-3-4.86-5.94-9.84-17.59-22.76-26.58-29.5-13.85-10.38-29.07-16.23-48.19-18.46-7.16-.86-22.92-.41-30.21.85a192,192,0,0,0-41,12.74c-25.1,11.11-52.57,30.53-74.93,53-6.62,6.6-8.55,8.79-11.45,12.85A83.39,83.39,0,0,0,294,628.89c.2,1.65.2,2.89,0,2.7-.52-.5-4.16-16.74-5.44-24.29a231,231,0,0,1-3.13-44.9c1.18-30.61,8.89-58,22-78,4.34-6.65,17.34-20.57,23.68-25.33a108.91,108.91,0,0,1,28.62-15.88c21.62-8.08,42.74-8,69.89.2,20.38,6.21,39.22,15.81,57.73,29.42,6.4,4.72,25.22,22.71,30.34,29a202.84,202.84,0,0,1,23.69,36.79c2.91,5.94,4.1,8.83,2.88,7Z" transform="translate(-190.04 -337.87)"/></g><path id="path44135" class="cls-2" d="M501.57,754.93a184.09,184.09,0,0,1-121.12,49.34c-9.88.27-26.4-.53-28.14-1.36-.31-.16,3.19-.42,7.8-.62,12.32-.54,21.08-2.24,34.36-6.75,27.58-9.3,49.54-32.44,61.24-64.55,2.77-7.63,4.57-14.89,6.45-26.07,5.37-31.83,3.44-64.74-5.92-101.3-2.52-9.89-4.72-15.78-8.46-22.65-4.9-9.06-7.54-12.37-16.48-20.79-8.2-7.73-11.57-10.13-19.86-14.15a17.12,17.12,0,0,1-3.63-2.11c0-.5,18.17,5.22,25.4,8a220.94,220.94,0,0,1,50.89,27.15c6.63,4.76,25.42,22.36,29.95,28a109.92,109.92,0,0,1,24.57,68.31c.29,30.92-11.1,55.39-37.05,79.53Z" transform="translate(-190.04 -337.87)"/><g id="g44137"><path id="path44139" class="cls-4" d="M501.57,754.93a184.09,184.09,0,0,1-121.12,49.34c-9.88.27-26.4-.53-28.14-1.36-.31-.16,3.19-.42,7.8-.62,12.32-.54,21.08-2.24,34.36-6.75,27.58-9.3,49.54-32.44,61.24-64.55,2.77-7.63,4.57-14.89,6.45-26.07,5.37-31.83,3.44-64.74-5.92-101.3-2.52-9.89-4.72-15.78-8.46-22.65-4.9-9.06-7.54-12.37-16.48-20.79-8.2-7.73-11.57-10.13-19.86-14.15a17.12,17.12,0,0,1-3.63-2.11c0-.5,18.17,5.22,25.4,8a220.94,220.94,0,0,1,50.89,27.15c6.63,4.76,25.42,22.36,29.95,28a109.92,109.92,0,0,1,24.57,68.31C538.91,706.32,527.52,730.79,501.57,754.93Z" transform="translate(-190.04 -337.87)"/></g><path id="path44141" class="cls-2" d="M419.43,692.07c-47.76,42.65-94.78,60.43-139.78,52.79-30.16-5.09-56.17-23.45-71.76-50.62-7.12-12.41-12.42-29.6-15.06-48.9a185.12,185.12,0,0,1,30.8-130.18c5.37-7.8,6.72-9.2,3.35-3.44-7.29,12.36-13,29.53-14.5,43.44a95.1,95.1,0,0,0,5.89,43.39c7.19,19.26,18.33,34.27,37.66,51,24.32,20.91,52.79,36.19,86.86,46.65,14.91,4.57,26.48,6.31,37.52,5.64,17.35-1.1,32.38-6.91,47-18.2C428.61,682.71,421.47,690.25,419.43,692.07Z" transform="translate(-190.04 -337.87)"/><g id="g44143"><path id="path44145" class="cls-4" d="M419.43,692.07c-47.76,42.65-94.78,60.43-139.78,52.79-30.16-5.09-56.17-23.45-71.76-50.62-7.12-12.41-12.42-29.6-15.06-48.9a185.12,185.12,0,0,1,30.8-130.18c5.37-7.8,6.72-9.2,3.35-3.44-7.29,12.36-13,29.53-14.5,43.44a95.1,95.1,0,0,0,5.89,43.39c7.19,19.26,18.33,34.27,37.66,51,24.32,20.91,52.79,36.19,86.86,46.65,14.91,4.57,26.48,6.31,37.52,5.64,17.35-1.1,32.38-6.91,47-18.2C428.61,682.71,421.47,690.25,419.43,692.07Z" transform="translate(-190.04 -337.87)"/></g><g id="g44147"><path id="path44149" class="cls-5" d="M297.32,644.34c-14.44-45.06-18.1-94.27-1-138.94C310.13,468.23,346.67,439.88,386,437c61.81-12.17,40.64-95.12,124.49-98.5" transform="translate(-190.04 -337.87)"/></g><g id="g44151"><path id="path44153" class="cls-5" d="M392.88,539.8c45,9.59,88.6,29.48,119.07,64.46,31,34.66,37.23,90.88,9.22,129.06a98.55,98.55,0,0,1-7.38,9.41" transform="translate(-190.04 -337.87)"/></g><g id="g44155"><path id="path44157" class="cls-5" d="M316.52,563.34c4.37-4.42,8.92-8.75,13.69-13.14,27.41-24.4,59.07-45.07,95-53.85,34-9.17,73.73-2.57,98.74,23.46,8.89,8.3,15.92,18.33,21.67,29.08,6.87,12.86,24.22,11.37,32-3.19,14.58-27.31,1.29-58.35-11.21-84.05" transform="translate(-190.04 -337.87)"/></g><g id="g44159"><path id="path44161" class="cls-5" d="M241.67,492.59a105.92,105.92,0,0,0-26.12,48.19c-10.08,35,3.8,73,29.31,98,30.13,30.44,69.59,50.29,111.08,60.79" transform="translate(-190.04 -337.87)"/></g><g id="g44163"><path id="path44165" class="cls-5" d="M331.43,799.41A109.21,109.21,0,0,0,392,796.07c37.46-11,61.84-47.55,68.77-84.5,7.53-37.17,4.21-75.11-5.79-111.66" transform="translate(-190.04 -337.87)"/></g><g id="g44167"><path id="path44169" class="cls-5" d="M436.34,674.71c-5.08,5.73-10.43,11.48-15.38,16.31-37.9,35.27-89.68,64.07-143.23,53.9-37.4-6.6-68.53-35.9-79.36-71.83" transform="translate(-190.04 -337.87)"/></g><g id="g44171"><path id="path44173" class="cls-5" d="M463.22,423.34c14-8.72,51.47-17.3,84.89,14.31s26.93,69.49,19,83.94-23.28,18.06-32.71,3.19a187.65,187.65,0,0,0-72-68.36c-15.86-8.82-13.18-24.32.87-33.08ZM241.27,492.81c-70.17,74.2-66.91,191.28,7.3,261.46S439.85,821.17,510,747a183.53,183.53,0,0,0,47.13-91.71c6.31-37.62,46.3-68.15,69.24-101.58,35.15-51.23,28.81-128.63-21.58-176.28s-128-49.69-177.22-11.73c-32.09,24.78-60.37,66.39-98.49,75.13A185.63,185.63,0,0,0,241.27,492.81Z" transform="translate(-190.04 -337.87)"/></g><g id="g44175"><path id="path44177" class="cls-5" d="M431.85,560.46a81.78,81.78,0,1,1-115.6,3.25A81.8,81.8,0,0,1,431.85,560.46Z" transform="translate(-190.04 -337.87)"/></g><path id="path44179" class="cls-6" d="M557.92,588.34c.5-3.74,31-22.88,55.17-55.32,16.86-22.6,38.19-57,22.4-113.29,35.85,91.53-14.37,144.94-31.63,161.93-36.12,35.6-45.09,62.63-46.11,67.85-8,40.23-12.82,60.55-47.72,97.46a184.57,184.57,0,0,1-154.27,56.79c62.12-9.46,105.13-30.41,141-68.39C533.2,696.75,549.88,648.48,557.92,588.34Z" transform="translate(-190.04 -337.87)"/><path id="path44181" class="cls-6" d="M443.45,575.84c-11.36-43.74-61.37-60.71-95.25-51.29C315,533.8,281.38,570,294.13,615.73c8.41-44.84,28.35-66.39,58.22-74.72C383.09,532.43,418.78,542.65,443.45,575.84ZM461.63,456s-34.74-13-15.88-35.18,46.55-24,87.71,5.4c0,0-42.91-24.38-73.93-.6,0,0-19.15,16.37,2.1,30.38Z" transform="translate(-190.04 -337.87)"/><g id="g44183"><g id="g44199"><g class="cls-7"><g id="g44197" class="cls-8"><g id="g44195"><g id="g44193"><path id="path44191" class="cls-9" d="M492.21,503.51c8.5,22.78,7.76,49.06.14,75.73m-32.6,66.52c-3.74,5.34-7.72,10.6-11.87,15.71-3.37,4.2-7.27,8.83-11.33,13.44-5,5.73-10.37,11.48-15.31,16.27C383.45,726.41,331.57,755,278.38,745c-37.14-6.39-68-35.42-78.64-71.1a101,101,0,0,1-3.23-15.17,112.59,112.59,0,0,1-.67-27.88,104.83,104.83,0,0,1,14.68-44.52m54.11,160.12c13.2,27,39,45.08,67.67,51.84,19.75,4.7,40.87,4,60-2.78,37.42-11,61.41-47.11,68.34-84.06,7.55-37.15,4.9-75.82-5.08-112.36a296.43,296.43,0,0,0-14.45-40.55M323,459.84c-30.78-2.71-60.42,10.9-81.08,33A105.81,105.81,0,0,0,215.82,541c-10.11,35,3.72,72.92,29.17,97.85,30.08,30.4,69.47,50.16,110.88,60.61a290.52,290.52,0,0,0,39.17,7m145.23-53.09c18.52-20.63,10.52-53.31,29.85-72.23C606,546.09,653.87,456.92,629.5,407.75M425.16,496.27c-36,8.77-68.28,28.8-95.7,53.21-4.76,4.37-9.3,8.72-13.69,13.13-4.91,5-9.67,10-14.3,15.3-4.08,4.94-8,10-11.63,15.16M459.72,775.92a101.47,101.47,0,0,1-31.27,3.69m60.93-190.87a225.74,225.74,0,0,1-22.79,46.75M283.4,602.57a210.09,210.09,0,0,0-22.18,44.71m-3.41,10.89c-7.3,26.3-7.56,52.9,1.86,77.42m175.7-189a208.56,208.56,0,0,0-27.76-41.37m-6.48-7c-18.8-19.25-41.29-32.74-66.76-37.05m74.79,246.4a208.67,208.67,0,0,0,48.4-3.2m9.76-2.15c26.48-6.67,49.74-19.6,66.35-39.86M291.36,537.06a228.8,228.8,0,0,1,50.88-4.16m3.53,200.41a230.58,230.58,0,0,1-29-42.58M354.57,533.5a308.33,308.33,0,0,1,38.74,5.64c45,9.59,88.1,30.07,118.57,65,31,34.68,36.9,90.57,8.89,128.75a109.55,109.55,0,0,1-61,43M310.36,678a313.62,313.62,0,0,1-13.1-33.73c-14.47-45.08-18.09-94.29-1-139,11.58-31.12,38.8-55.78,70.47-64.63M217.23,577.1c15.28-18.51,38.05-31,64.53-37.82m135.68,239c-23.38-4.19-45.27-17.65-64.24-37" transform="translate(-190.04 -337.87)"/></g></g></g></g></g></g><g id="g44201"><path id="path44203" class="cls-10" d="M629.5,407.75c-36.11-57.26-139.85.53-165.2,14.76" transform="translate(-190.04 -337.87)"/></g><g id="g44205"><g id="g44221"><g class="cls-7"><g id="g44219" class="cls-8"><g id="g44217"><g id="g44215"><path id="path44213" class="cls-11" d="M464.3,422.51c-25.84,15.25-23.08,27.91-.37,41.61,10.88,6.55,17.8,18.22,23.85,29.46m78.64-31.93c-31.06-47.76-13.72-119.35-56-123.11" transform="translate(-190.04 -337.87)"/></g></g></g></g></g></g></g></g></g></svg>